<?xml version="1.0" encoding="UTF-8"?>
<svg xmlns="http://www.w3.org/2000/svg" width="1800" height="1200" viewBox="0 0 1800 1200">
  <defs>
    <style>
      .table-box { fill: #f8f9fa; stroke: #3498db; stroke-width: 2; }
      .table-title { fill: #3498db; font-family: Arial, sans-serif; font-size: 14px; font-weight: bold; }
      .field-text { fill: #2c3e50; font-family: Arial, sans-serif; font-size: 11px; }
      .pk-field { fill: #e74c3c; font-weight: bold; }
      .fk-field { fill: #27ae60; }
      .relationship-line { stroke: #666; stroke-width: 1.5; fill: none; }
      .relationship-label { fill: #666; font-family: Arial, sans-serif; font-size: 10px; }
      .core-table { fill: #e8f4fd; stroke: #2980b9; stroke-width: 3; }
      .hardware-table { fill: #e8f8f5; stroke: #27ae60; stroke-width: 2; }
      .software-table { fill: #fef9e7; stroke: #f39c12; stroke-width: 2; }
      .message-table { fill: #f4ecf7; stroke: #8e44ad; stroke-width: 2; }
      .auth-table { fill: #fadbd8; stroke: #e74c3c; stroke-width: 2; }
    </style>
  </defs>

  <!-- Title -->
  <text x="900" y="30" text-anchor="middle" class="table-title" font-size="20">SysManage Database Schema - Entity Relationship Diagram</text>

  <!-- Core Tables Group -->
  <text x="50" y="70" class="table-title" font-size="16">Core Entities</text>

  <!-- User Table -->
  <rect x="50" y="80" width="200" height="280" class="table-box auth-table"/>
  <text x="150" y="100" text-anchor="middle" class="table-title">User</text>
  <text x="60" y="120" class="field-text pk-field">🔑 id (BigInteger)</text>
  <text x="60" y="135" class="field-text">userid (String)</text>
  <text x="60" y="150" class="field-text">first_name (String)</text>
  <text x="60" y="165" class="field-text">last_name (String)</text>
  <text x="60" y="180" class="field-text">hashed_password (String)</text>
  <text x="60" y="195" class="field-text">active (Boolean)</text>
  <text x="60" y="210" class="field-text">last_access (DateTime)</text>
  <text x="60" y="225" class="field-text">is_locked (Boolean)</text>
  <text x="60" y="240" class="field-text">failed_login_attempts (Integer)</text>
  <text x="60" y="255" class="field-text">locked_at (DateTime)</text>
  <text x="60" y="270" class="field-text">profile_image (LargeBinary)</text>
  <text x="60" y="285" class="field-text">profile_image_type (String)</text>
  <text x="60" y="300" class="field-text">profile_image_uploaded_at (DateTime)</text>
  <text x="60" y="315" class="field-text">created_at (DateTime)</text>
  <text x="60" y="330" class="field-text">updated_at (DateTime)</text>

  <!-- Host Table (Central) -->
  <rect x="320" y="80" width="280" height="450" class="table-box core-table"/>
  <text x="460" y="100" text-anchor="middle" class="table-title">Host (Central Entity)</text>
  <text x="330" y="120" class="field-text pk-field">🔑 id (BigInteger)</text>
  <text x="330" y="135" class="field-text">host_token (String, Unique)</text>
  <text x="330" y="150" class="field-text">active (Boolean)</text>
  <text x="330" y="165" class="field-text">fqdn (String)</text>
  <text x="330" y="180" class="field-text">ipv4 (String)</text>
  <text x="330" y="195" class="field-text">ipv6 (String)</text>
  <text x="330" y="210" class="field-text">last_access (DateTime)</text>
  <text x="330" y="225" class="field-text">status (String)</text>
  <text x="330" y="240" class="field-text">approval_status (String)</text>
  <text x="330" y="255" class="field-text">client_certificate (Text)</text>
  <text x="330" y="270" class="field-text">certificate_serial (String)</text>
  <text x="330" y="285" class="field-text">certificate_issued_at (DateTime)</text>
  <text x="330" y="300" class="field-text">platform (String)</text>
  <text x="330" y="315" class="field-text">platform_release (String)</text>
  <text x="330" y="330" class="field-text">platform_version (Text)</text>
  <text x="330" y="345" class="field-text">machine_architecture (String)</text>
  <text x="330" y="360" class="field-text">processor (String)</text>
  <text x="330" y="375" class="field-text">cpu_vendor (String)</text>
  <text x="330" y="390" class="field-text">cpu_model (String)</text>
  <text x="330" y="405" class="field-text">cpu_cores (Integer)</text>
  <text x="330" y="420" class="field-text">cpu_threads (Integer)</text>
  <text x="330" y="435" class="field-text">memory_total_mb (BigInteger)</text>
  <text x="330" y="450" class="field-text">reboot_required (Boolean)</text>
  <text x="330" y="465" class="field-text">is_agent_privileged (Boolean)</text>
  <text x="330" y="480" class="field-text">script_execution_enabled (Boolean)</text>
  <text x="330" y="495" class="field-text">enabled_shells (String)</text>
  <text x="330" y="510" class="field-text">diagnostics_requested_at (DateTime)</text>

  <!-- BearerToken -->
  <rect x="50" y="380" width="200" height="80" class="table-box auth-table"/>
  <text x="150" y="400" text-anchor="middle" class="table-title">BearerToken</text>
  <text x="60" y="420" class="field-text pk-field">🔑 token (String)</text>
  <text x="60" y="435" class="field-text">created_datetime (DateTime)</text>

  <!-- Tag -->
  <rect x="650" y="80" width="180" height="120" class="table-box"/>
  <text x="740" y="100" text-anchor="middle" class="table-title">Tag</text>
  <text x="660" y="120" class="field-text pk-field">🔑 id (BigInteger)</text>
  <text x="660" y="135" class="field-text">name (String, Unique)</text>
  <text x="660" y="150" class="field-text">description (String)</text>
  <text x="660" y="165" class="field-text">created_at (DateTime)</text>
  <text x="660" y="180" class="field-text">updated_at (DateTime)</text>

  <!-- HostTag Junction -->
  <rect x="650" y="220" width="180" height="100" class="table-box"/>
  <text x="740" y="240" text-anchor="middle" class="table-title">HostTag</text>
  <text x="660" y="260" class="field-text fk-field">🔗 host_id → Host</text>
  <text x="660" y="275" class="field-text fk-field">🔗 tag_id → Tag</text>
  <text x="660" y="290" class="field-text">created_at (DateTime)</text>

  <!-- Hardware Tables Group -->
  <text x="900" y="70" class="table-title" font-size="16">Hardware Inventory</text>

  <!-- StorageDevice -->
  <rect x="900" y="80" width="220" height="260" class="table-box hardware-table"/>
  <text x="1010" y="100" text-anchor="middle" class="table-title">StorageDevice</text>
  <text x="910" y="120" class="field-text pk-field">🔑 id (Integer)</text>
  <text x="910" y="135" class="field-text fk-field">🔗 host_id → Host</text>
  <text x="910" y="150" class="field-text">name (String)</text>
  <text x="910" y="165" class="field-text">device_path (String)</text>
  <text x="910" y="180" class="field-text">mount_point (String)</text>
  <text x="910" y="195" class="field-text">file_system (String)</text>
  <text x="910" y="210" class="field-text">device_type (String)</text>
  <text x="910" y="225" class="field-text">capacity_bytes (BigInteger)</text>
  <text x="910" y="240" class="field-text">used_bytes (BigInteger)</text>
  <text x="910" y="255" class="field-text">available_bytes (BigInteger)</text>
  <text x="910" y="270" class="field-text">is_physical (Boolean)</text>
  <text x="910" y="285" class="field-text">created_at (DateTime)</text>
  <text x="910" y="315" class="field-text">updated_at (DateTime)</text>

  <!-- NetworkInterface -->
  <rect x="1150" y="80" width="220" height="280" class="table-box hardware-table"/>
  <text x="1260" y="100" text-anchor="middle" class="table-title">NetworkInterface</text>
  <text x="1160" y="120" class="field-text pk-field">🔑 id (Integer)</text>
  <text x="1160" y="135" class="field-text fk-field">🔗 host_id → Host</text>
  <text x="1160" y="150" class="field-text">name (String)</text>
  <text x="1160" y="165" class="field-text">interface_type (String)</text>
  <text x="1160" y="180" class="field-text">hardware_type (String)</text>
  <text x="1160" y="195" class="field-text">mac_address (String)</text>
  <text x="1160" y="210" class="field-text">ipv4_address (String)</text>
  <text x="1160" y="225" class="field-text">ipv6_address (String)</text>
  <text x="1160" y="240" class="field-text">subnet_mask (String)</text>
  <text x="1160" y="255" class="field-text">is_active (Boolean)</text>
  <text x="1160" y="270" class="field-text">speed_mbps (Integer)</text>
  <text x="1160" y="285" class="field-text">created_at (DateTime)</text>
  <text x="1160" y="300" class="field-text">updated_at (DateTime)</text>

  <!-- Software Tables Group -->
  <text x="50" y="520" class="table-title" font-size="16">Software Management</text>

  <!-- SoftwarePackage -->
  <rect x="50" y="530" width="250" height="320" class="table-box software-table"/>
  <text x="175" y="550" text-anchor="middle" class="table-title">SoftwarePackage</text>
  <text x="60" y="570" class="field-text pk-field">🔑 id (Integer)</text>
  <text x="60" y="585" class="field-text fk-field">🔗 host_id → Host</text>
  <text x="60" y="600" class="field-text">package_name (String)</text>
  <text x="60" y="615" class="field-text">version (String)</text>
  <text x="60" y="630" class="field-text">description (Text)</text>
  <text x="60" y="645" class="field-text">package_manager (String)</text>
  <text x="60" y="660" class="field-text">source (String)</text>
  <text x="60" y="675" class="field-text">architecture (String)</text>
  <text x="60" y="690" class="field-text">size_bytes (BigInteger)</text>
  <text x="60" y="705" class="field-text">install_date (DateTime)</text>
  <text x="60" y="720" class="field-text">vendor (String)</text>
  <text x="60" y="735" class="field-text">category (String)</text>
  <text x="60" y="750" class="field-text">bundle_id (String)</text>
  <text x="60" y="765" class="field-text">is_system_package (Boolean)</text>
  <text x="60" y="780" class="field-text">is_user_installed (Boolean)</text>
  <text x="60" y="795" class="field-text">created_at (DateTime)</text>
  <text x="60" y="810" class="field-text">updated_at (DateTime)</text>

  <!-- PackageUpdate -->
  <rect x="320" y="580" width="250" height="280" class="table-box software-table"/>
  <text x="445" y="600" text-anchor="middle" class="table-title">PackageUpdate</text>
  <text x="330" y="620" class="field-text pk-field">🔑 id (Integer)</text>
  <text x="330" y="635" class="field-text fk-field">🔗 host_id → Host</text>
  <text x="330" y="650" class="field-text">package_name (String)</text>
  <text x="330" y="665" class="field-text">current_version (String)</text>
  <text x="330" y="680" class="field-text">available_version (String)</text>
  <text x="330" y="695" class="field-text">package_manager (String)</text>
  <text x="330" y="710" class="field-text">is_security_update (Boolean)</text>
  <text x="330" y="725" class="field-text">is_system_update (Boolean)</text>
  <text x="330" y="740" class="field-text">requires_reboot (Boolean)</text>
  <text x="330" y="755" class="field-text">update_size_bytes (BigInteger)</text>
  <text x="330" y="770" class="field-text">status (String)</text>
  <text x="330" y="785" class="field-text">detected_at (DateTime)</text>
  <text x="330" y="800" class="field-text">updated_at (DateTime)</text>
  <text x="330" y="815" class="field-text">last_checked_at (DateTime)</text>

  <!-- AvailablePackage -->
  <rect x="590" y="530" width="220" height="200" class="table-box software-table"/>
  <text x="700" y="550" text-anchor="middle" class="table-title">AvailablePackage</text>
  <text x="600" y="570" class="field-text pk-field">🔑 id (Integer)</text>
  <text x="600" y="585" class="field-text">os_name (String)</text>
  <text x="600" y="600" class="field-text">os_version (String)</text>
  <text x="600" y="615" class="field-text">package_manager (String)</text>
  <text x="600" y="630" class="field-text">package_name (String)</text>
  <text x="600" y="645" class="field-text">package_version (String)</text>
  <text x="600" y="660" class="field-text">package_description (Text)</text>
  <text x="600" y="675" class="field-text">last_updated (DateTime)</text>
  <text x="600" y="690" class="field-text">created_at (DateTime)</text>
  <text x="600" y="705" class="field-text">📋 Unique: (os_name, os_version,</text>
  <text x="600" y="720" class="field-text">    package_manager, package_name)</text>

  <!-- UpdateExecutionLog -->
  <rect x="590" y="750" width="220" height="220" class="table-box software-table"/>
  <text x="700" y="770" text-anchor="middle" class="table-title">UpdateExecutionLog</text>
  <text x="600" y="790" class="field-text pk-field">🔑 id (Integer)</text>
  <text x="600" y="805" class="field-text fk-field">🔗 host_id → Host</text>
  <text x="600" y="820" class="field-text fk-field">🔗 package_update_id → PackageUpdate</text>
  <text x="600" y="835" class="field-text">package_name (String)</text>
  <text x="600" y="850" class="field-text">from_version (String)</text>
  <text x="600" y="865" class="field-text">to_version (String)</text>
  <text x="600" y="880" class="field-text">status (String)</text>
  <text x="600" y="895" class="field-text">started_at (DateTime)</text>
  <text x="600" y="910" class="field-text">completed_at (DateTime)</text>
  <text x="600" y="925" class="field-text">success (Boolean)</text>
  <text x="600" y="940" class="field-text">execution_log (Text)</text>
  <text x="600" y="955" class="field-text">created_at (DateTime)</text>

  <!-- Message Queue Tables -->
  <text x="900" y="420" class="table-title" font-size="16">Message Queue System</text>

  <!-- MessageQueue -->
  <rect x="900" y="430" width="240" height="320" class="table-box message-table"/>
  <text x="1020" y="450" text-anchor="middle" class="table-title">MessageQueue</text>
  <text x="910" y="470" class="field-text pk-field">🔑 id (Integer)</text>
  <text x="910" y="485" class="field-text fk-field">🔗 host_id → Host (nullable)</text>
  <text x="910" y="500" class="field-text">message_id (String, Unique)</text>
  <text x="910" y="515" class="field-text">direction (String)</text>
  <text x="910" y="530" class="field-text">message_type (String)</text>
  <text x="910" y="545" class="field-text">message_data (Text)</text>
  <text x="910" y="560" class="field-text">status (String)</text>
  <text x="910" y="575" class="field-text">priority (String)</text>
  <text x="910" y="590" class="field-text">retry_count (Integer)</text>
  <text x="910" y="605" class="field-text">max_retries (Integer)</text>
  <text x="910" y="620" class="field-text">created_at (DateTime)</text>
  <text x="910" y="635" class="field-text">scheduled_at (DateTime)</text>
  <text x="910" y="650" class="field-text">started_at (DateTime)</text>
  <text x="910" y="665" class="field-text">completed_at (DateTime)</text>
  <text x="910" y="680" class="field-text">error_message (Text)</text>
  <text x="910" y="695" class="field-text">expired_at (DateTime)</text>
  <text x="910" y="710" class="field-text">correlation_id (String)</text>
  <text x="910" y="725" class="field-text">reply_to (String)</text>

  <!-- QueueMetrics -->
  <rect x="1160" y="430" width="220" height="240" class="table-box message-table"/>
  <text x="1270" y="450" text-anchor="middle" class="table-title">QueueMetrics</text>
  <text x="1170" y="470" class="field-text pk-field">🔑 id (Integer)</text>
  <text x="1170" y="485" class="field-text fk-field">🔗 host_id → Host (nullable)</text>
  <text x="1170" y="500" class="field-text">metric_name (String)</text>
  <text x="1170" y="515" class="field-text">direction (String)</text>
  <text x="1170" y="530" class="field-text">count (Integer)</text>
  <text x="1170" y="545" class="field-text">total_time_ms (Integer)</text>
  <text x="1170" y="560" class="field-text">avg_time_ms (Integer)</text>
  <text x="1170" y="575" class="field-text">min_time_ms (Integer)</text>
  <text x="1170" y="590" class="field-text">max_time_ms (Integer)</text>
  <text x="1170" y="605" class="field-text">error_count (Integer)</text>
  <text x="1170" y="620" class="field-text">period_start (DateTime)</text>
  <text x="1170" y="635" class="field-text">period_end (DateTime)</text>
  <text x="1170" y="650" class="field-text">updated_at (DateTime)</text>

  <!-- User Management Tables -->
  <text x="1400" y="70" class="table-title" font-size="16">User Access Management</text>

  <!-- UserAccount -->
  <rect x="1400" y="80" width="200" height="180" class="table-box auth-table"/>
  <text x="1500" y="100" text-anchor="middle" class="table-title">UserAccount</text>
  <text x="1410" y="120" class="field-text pk-field">🔑 id (Integer)</text>
  <text x="1410" y="135" class="field-text fk-field">🔗 host_id → Host</text>
  <text x="1410" y="150" class="field-text">username (String)</text>
  <text x="1410" y="165" class="field-text">uid (Integer)</text>
  <text x="1410" y="180" class="field-text">home_directory (String)</text>
  <text x="1410" y="195" class="field-text">shell (String)</text>
  <text x="1410" y="210" class="field-text">is_system_user (Boolean)</text>
  <text x="1410" y="225" class="field-text">created_at (DateTime)</text>
  <text x="1410" y="240" class="field-text">updated_at (DateTime)</text>

  <!-- UserGroup -->
  <rect x="1620" y="80" width="170" height="160" class="table-box auth-table"/>
  <text x="1705" y="100" text-anchor="middle" class="table-title">UserGroup</text>
  <text x="1630" y="120" class="field-text pk-field">🔑 id (Integer)</text>
  <text x="1630" y="135" class="field-text fk-field">🔗 host_id → Host</text>
  <text x="1630" y="150" class="field-text">group_name (String)</text>
  <text x="1630" y="165" class="field-text">gid (Integer)</text>
  <text x="1630" y="180" class="field-text">is_system_group (Boolean)</text>
  <text x="1630" y="195" class="field-text">created_at (DateTime)</text>
  <text x="1630" y="210" class="field-text">updated_at (DateTime)</text>

  <!-- UserGroupMembership -->
  <rect x="1400" y="280" width="220" height="140" class="table-box auth-table"/>
  <text x="1510" y="300" text-anchor="middle" class="table-title">UserGroupMembership</text>
  <text x="1410" y="320" class="field-text pk-field">🔑 id (Integer)</text>
  <text x="1410" y="335" class="field-text fk-field">🔗 host_id → Host</text>
  <text x="1410" y="350" class="field-text fk-field">🔗 user_account_id → UserAccount</text>
  <text x="1410" y="365" class="field-text fk-field">🔗 user_group_id → UserGroup</text>
  <text x="1410" y="380" class="field-text">created_at (DateTime)</text>
  <text x="1410" y="395" class="field-text">updated_at (DateTime)</text>

  <!-- Script Management Tables -->
  <text x="1400" y="470" class="table-title" font-size="16">Script Management</text>

  <!-- SavedScript -->
  <rect x="1400" y="480" width="200" height="200" class="table-box"/>
  <text x="1500" y="500" text-anchor="middle" class="table-title">SavedScript</text>
  <text x="1410" y="520" class="field-text pk-field">🔑 id (Integer)</text>
  <text x="1410" y="535" class="field-text">name (String)</text>
  <text x="1410" y="550" class="field-text">description (Text)</text>
  <text x="1410" y="565" class="field-text">content (Text)</text>
  <text x="1410" y="580" class="field-text">shell_type (String)</text>
  <text x="1410" y="595" class="field-text">platform (String)</text>
  <text x="1410" y="610" class="field-text">run_as_user (String)</text>
  <text x="1410" y="625" class="field-text">is_active (Boolean)</text>
  <text x="1410" y="640" class="field-text">created_by (String)</text>
  <text x="1410" y="655" class="field-text">created_at (DateTime)</text>
  <text x="1410" y="670" class="field-text">updated_at (DateTime)</text>

  <!-- ScriptExecutionLog -->
  <rect x="1400" y="700" width="220" height="280" class="table-box"/>
  <text x="1510" y="720" text-anchor="middle" class="table-title">ScriptExecutionLog</text>
  <text x="1410" y="740" class="field-text pk-field">🔑 id (Integer)</text>
  <text x="1410" y="755" class="field-text fk-field">🔗 host_id → Host</text>
  <text x="1410" y="770" class="field-text fk-field">🔗 saved_script_id → SavedScript</text>
  <text x="1410" y="785" class="field-text">script_name (String)</text>
  <text x="1410" y="800" class="field-text">execution_id (String, Unique)</text>
  <text x="1410" y="815" class="field-text">execution_uuid (String, Unique)</text>
  <text x="1410" y="830" class="field-text">status (String)</text>
  <text x="1410" y="845" class="field-text">started_at (DateTime)</text>
  <text x="1410" y="860" class="field-text">completed_at (DateTime)</text>
  <text x="1410" y="875" class="field-text">exit_code (Integer)</text>
  <text x="1410" y="890" class="field-text">stdout_output (Text)</text>
  <text x="1410" y="905" class="field-text">stderr_output (Text)</text>
  <text x="1410" y="920" class="field-text">error_message (Text)</text>
  <text x="1410" y="935" class="field-text">created_at (DateTime)</text>

  <!-- Additional Tables -->
  <text x="50" y="900" class="table-title" font-size="16">Additional Systems</text>

  <!-- DiagnosticReport -->
  <rect x="50" y="910" width="220" height="280" class="table-box"/>
  <text x="160" y="930" text-anchor="middle" class="table-title">DiagnosticReport</text>
  <text x="60" y="950" class="field-text pk-field">🔑 id (Integer)</text>
  <text x="60" y="965" class="field-text fk-field">🔗 host_id → Host</text>
  <text x="60" y="980" class="field-text">collection_id (String, Unique)</text>
  <text x="60" y="995" class="field-text">requested_by (String)</text>
  <text x="60" y="1010" class="field-text">status (String)</text>
  <text x="60" y="1025" class="field-text">requested_at (DateTime)</text>
  <text x="60" y="1040" class="field-text">started_at (DateTime)</text>
  <text x="60" y="1055" class="field-text">completed_at (DateTime)</text>
  <text x="60" y="1070" class="field-text">system_logs (Text)</text>
  <text x="60" y="1085" class="field-text">configuration_files (Text)</text>
  <text x="60" y="1100" class="field-text">network_info (Text)</text>
  <text x="60" y="1115" class="field-text">collection_size_bytes (BigInteger)</text>
  <text x="60" y="1130" class="field-text">files_collected (Integer)</text>
  <text x="60" y="1145" class="field-text">error_message (Text)</text>

  <!-- PasswordResetToken -->
  <rect x="300" y="910" width="200" height="140" class="table-box auth-table"/>
  <text x="400" y="930" text-anchor="middle" class="table-title">PasswordResetToken</text>
  <text x="310" y="950" class="field-text pk-field">🔑 id (BigInteger)</text>
  <text x="310" y="965" class="field-text fk-field">🔗 user_id → User</text>
  <text x="310" y="980" class="field-text">token (String, Unique)</text>
  <text x="310" y="995" class="field-text">created_at (DateTime)</text>
  <text x="310" y="1010" class="field-text">expires_at (DateTime)</text>
  <text x="310" y="1025" class="field-text">used_at (DateTime)</text>
  <text x="310" y="1040" class="field-text">is_used (Boolean)</text>

  <!-- Ubuntu Pro Tables -->
  <rect x="520" y="1000" width="200" height="180" class="table-box"/>
  <text x="620" y="1020" text-anchor="middle" class="table-title">UbuntuProInfo</text>
  <text x="530" y="1040" class="field-text pk-field">🔑 id (Integer)</text>
  <text x="530" y="1055" class="field-text fk-field">🔗 host_id → Host</text>
  <text x="530" y="1070" class="field-text">available (Boolean)</text>
  <text x="530" y="1085" class="field-text">attached (Boolean)</text>
  <text x="530" y="1100" class="field-text">version (String)</text>
  <text x="530" y="1115" class="field-text">expires (DateTime)</text>
  <text x="530" y="1130" class="field-text">account_name (String)</text>
  <text x="530" y="1145" class="field-text">contract_name (String)</text>
  <text x="530" y="1160" class="field-text">tech_support_level (String)</text>

  <rect x="750" y="1000" width="200" height="140" class="table-box"/>
  <text x="850" y="1020" text-anchor="middle" class="table-title">UbuntuProService</text>
  <text x="760" y="1040" class="field-text pk-field">🔑 id (Integer)</text>
  <text x="760" y="1055" class="field-text fk-field">🔗 ubuntu_pro_info_id</text>
  <text x="760" y="1070" class="field-text">name (String)</text>
  <text x="760" y="1085" class="field-text">description (Text)</text>
  <text x="760" y="1100" class="field-text">available (Boolean)</text>
  <text x="760" y="1115" class="field-text">status (String)</text>
  <text x="760" y="1130" class="field-text">entitled (Boolean)</text>

  <!-- Relationship Lines -->

  <!-- Host to Hardware -->
  <path d="M 600 250 L 900 200" class="relationship-line"/>
  <text x="750" y="220" class="relationship-label">1:N</text>

  <path d="M 600 280 L 1150 250" class="relationship-line"/>
  <text x="875" y="260" class="relationship-label">1:N</text>

  <!-- Host to Software -->
  <path d="M 320 530 L 175 530" class="relationship-line"/>
  <text x="240" y="520" class="relationship-label">1:N</text>

  <path d="M 350 530 L 350 580" class="relationship-line"/>
  <text x="360" y="555" class="relationship-label">1:N</text>

  <!-- Host to Message Queue -->
  <path d="M 600 350 L 900 500" class="relationship-line"/>
  <text x="750" y="425" class="relationship-label">1:N</text>

  <path d="M 600 380 L 1160 530" class="relationship-line"/>
  <text x="880" y="455" class="relationship-label">1:N</text>

  <!-- Host to User Management -->
  <path d="M 600 200 L 1400 180" class="relationship-line"/>
  <text x="1000" y="185" class="relationship-label">1:N</text>

  <path d="M 600 220 L 1620 180" class="relationship-line"/>
  <text x="1110" y="195" class="relationship-label">1:N</text>

  <path d="M 600 240 L 1400 340" class="relationship-line"/>
  <text x="1000" y="285" class="relationship-label">1:N</text>

  <!-- Host to Scripts -->
  <path d="M 600 300 L 1400 750" class="relationship-line"/>
  <text x="1000" y="525" class="relationship-label">1:N</text>

  <!-- Host to Diagnostics -->
  <path d="M 320 480 L 160 910" class="relationship-line"/>
  <text x="240" y="695" class="relationship-label">1:N</text>

  <!-- Host to Tags (Many-to-Many) -->
  <path d="M 600 180 L 650 270" class="relationship-line"/>
  <text x="620" y="225" class="relationship-label">M:N</text>

  <path d="M 740 220 L 740 200" class="relationship-line"/>
  <text x="750" y="210" class="relationship-label">M:N</text>

  <!-- PackageUpdate to UpdateExecutionLog -->
  <path d="M 570 720 L 590 850" class="relationship-line"/>
  <text x="575" y="785" class="relationship-label">1:N</text>

  <!-- SavedScript to ScriptExecutionLog -->
  <path d="M 1500 680 L 1500 700" class="relationship-line"/>
  <text x="1510" y="690" class="relationship-label">1:N</text>

  <!-- User to PasswordResetToken -->
  <path d="M 150 360 L 300 980" class="relationship-line"/>
  <text x="225" y="670" class="relationship-label">1:N</text>

  <!-- Host to UbuntuPro -->
  <path d="M 460 530 L 620 1000" class="relationship-line"/>
  <text x="540" y="765" class="relationship-label">1:1</text>

  <!-- UbuntuProInfo to UbuntuProService -->
  <path d="M 720 1090 L 750 1090" class="relationship-line"/>
  <text x="730" y="1080" class="relationship-label">1:N</text>

  <!-- UserAccount, UserGroup to UserGroupMembership -->
  <path d="M 1500 260 L 1500 280" class="relationship-line"/>
  <text x="1510" y="270" class="relationship-label">1:N</text>

  <path d="M 1620 240 L 1550 280" class="relationship-line"/>
  <text x="1585" y="260" class="relationship-label">1:N</text>

  <!-- Legend -->
  <rect x="1200" y="800" width="300" height="150" fill="#f8f9fa" stroke="#ddd" stroke-width="1"/>
  <text x="1350" y="820" text-anchor="middle" class="table-title">Legend</text>
  <text x="1210" y="840" class="field-text pk-field">🔑 Primary Key</text>
  <text x="1210" y="855" class="field-text fk-field">🔗 Foreign Key</text>
  <text x="1210" y="870" class="field-text">📋 Unique Constraint</text>
  <rect x="1210" y="880" width="20" height="15" class="core-table"/>
  <text x="1240" y="892" class="field-text">Core Entity</text>
  <rect x="1210" y="900" width="20" height="15" class="hardware-table"/>
  <text x="1240" y="912" class="field-text">Hardware</text>
  <rect x="1210" y="920" width="20" height="15" class="software-table"/>
  <text x="1240" y="932" class="field-text">Software</text>
  <rect x="1350" y="880" width="20" height="15" class="message-table"/>
  <text x="1380" y="892" class="field-text">Messaging</text>
  <rect x="1350" y="900" width="20" height="15" class="auth-table"/>
  <text x="1380" y="912" class="field-text">Authentication</text>
</svg>